<svg width="580" height="400" xmlns="http://www.w3.org/2000/svg">
 <!-- Created with SVG Editor - http://github.com/mzalive/SVG Editor/ -->
 <g>
  <title>background</title>
  <rect fill="#fff" id="canvas_background" height="402" width="582" y="-1" x="-1"/>
  <g display="none" overflow="visible" y="0" x="0" height="100%" width="100%" id="canvasGrid">
   <rect fill="url(#gridpattern)" stroke-width="0" y="0" x="0" height="100%" width="100%"/>
  </g>
 </g>
 <g>
  <title>Layer 1</title>
  <line stroke-linecap="undefined" stroke-linejoin="undefined" id="svg_1" y2="87.782822" x2="277.5" y1="325.782822" x1="277.5" stroke-width="1.5" stroke="#000" fill="none"/>
  <line stroke-linecap="undefined" stroke-linejoin="undefined" id="svg_2" y2="206.783318" x2="435.5" y1="205.783318" x1="132.5" fill-opacity="null" stroke-opacity="null" stroke-width="1.5" stroke="#000" fill="none"/>
  <rect id="svg_3" height="74" width="66" y="206.783333" x="277.5" stroke-opacity="null" stroke-width="0" stroke="#000" fill="#B6C7EA"/>
  <path id="svg_8" d="m278.117483,205.039395l0,-37.999993l34.000004,37.999993l-34.000004,0z" stroke-opacity="null" stroke-width="0" stroke="#000" fill="#D3BEE7"/>
  <path d="m269.5,179.783325c0,0 0,0 0,0c-1,0 -0.585785,0.585785 -2,2c-1.414215,1.414215 -3.0979,2.824432 -5,4c-0.850647,0.525726 -2.458801,1.693436 -3,3c-0.38269,0.923874 -0.61731,4.076126 -1,5c-0.541199,1.306564 -0.541199,2.306564 0,1c0.38269,-0.923874 2,-2 5,-5c4,-4 8,-9 10,-12l1,0l-1,0l0,0" id="svg_16" stroke-opacity="null" stroke-width="0" stroke="#000" fill="none"/>
  <path d="m267.5,184.783325c0,0 -1,0 -2,0c0,0 -1.149353,0.474274 -2,1c-1.9021,1.175568 -3,4 -4,7c-1,3 -1.234619,5.152237 -2,7c-0.541199,1.306564 -1,2 -1,2c0,1 0.528137,0.881668 1,0c1.701294,-3.178925 6.566315,-3.504456 10,-8c4.893738,-6.407135 6,-12 6,-14c0,-1 -2,-2 -2,-2c-2,0 -4.21167,-0.285873 -7,2c-1.093658,0.896591 -2,2 -3,2c0,0 0,1 0,2l1,0l0,-1" id="svg_17" stroke-opacity="null" stroke-width="0" stroke="#000" fill="none"/>
  <path d="m276.5,167.783325c-1,0 -0.292908,0.292892 -1,1c-0.707092,0.707108 -1.593994,1.513 -4,3c-2.690002,1.662506 -6.159271,2.610641 -9,4c-3.238922,1.584106 -5.824432,2.097885 -7,4c-0.525726,0.850647 -2,3 -3,5c-1,2 -2.877823,5.007492 -3,6c-0.503769,4.092209 -2,8 -2,11c0,2 0,4 0,4l0,1l1,0" id="svg_19" stroke-opacity="null" stroke-width="0" stroke="#000" fill="none"/>
  <path d="m270.5,110.783333c1,0 2,0 6,0c4,0 9,0 11,0l0,0" id="svg_21" fill-opacity="null" stroke-opacity="null" stroke-width="0" stroke="#000" fill="none"/>
 </g>
</svg>